<svg width="53" height="37" viewBox="0 0 53 37" fill="none" xmlns="http://www.w3.org/2000/svg">
<rect x="21.7028" y="12.9189" width="17.7838" height="10.1622" fill="#FF5151"/>
<rect x="16.6216" y="14.1892" width="1.27027" height="7.62162" fill="#FF5151" fill-opacity="0.5"/>
<rect x="20.4324" y="14.1892" width="1.27027" height="7.62162" fill="#FF5151" fill-opacity="0.7"/>
<rect x="19.1621" y="15.4595" width="1.27027" height="5.08108" fill="#FF5151" fill-opacity="0.5"/>
<rect x="14.0811" y="15.4595" width="1.27027" height="5.08108" fill="#FF5151" fill-opacity="0.3"/>
<rect x="11.5405" y="16.7297" width="1.27027" height="2.54054" fill="#FF5151" fill-opacity="0.1"/>
<rect x="9" y="16.7297" width="1.27027" height="2.54054" fill="#FF5151" fill-opacity="0.05"/>
<rect x="22.973" y="14.1892" width="17.7838" height="7.62162" fill="#FF5151"/>
<rect x="22.973" y="15.4595" width="19.0541" height="5.08108" fill="#FF5151"/>
<rect width="1.27027" height="5.08108" transform="matrix(-1 0 0 1 42.027 15.4595)" fill="#C23535"/>
<path d="M14.3333 1.66667V0H12.6667V1.66667H11V3.33333H12.6667V5H14.3333V3.33333H16V1.66667H14.3333Z" fill="#BC3C3C"/>
<path d="M52 11V10H51V11H50V12H51V13H52V12H53V11H52Z" fill="#BC3C3C"/>
<path d="M44.3333 32.6667V31H42.6667V32.6667H41V34.3333H42.6667V36H44.3333V34.3333H46V32.6667H44.3333Z" fill="#BC3C3C"/>
<path d="M15 35V34H14V35H13V36H14V37H15V36H16V35H15Z" fill="#BC3C3C"/>
<path d="M39 3V2H38V3H37V4H38V5H39V4H40V3H39Z" fill="#BC3C3C"/>
<path d="M2 23V22H1V23H0V24H1V25H2V24H3V23H2Z" fill="#BC3C3C"/>
</svg>
