<svg width="34" height="25" viewBox="0 0 34 25" fill="none" xmlns="http://www.w3.org/2000/svg">
<rect x="10" width="9.375" height="3.125" fill="#F3D742"/>
<rect x="6.875" y="3.125" width="9.375" height="3.125" fill="#F3D742"/>
<rect x="3.75" y="6.25" width="9.375" height="3.125" fill="#F3D742"/>
<rect x="0.625" y="9.375" width="15.625" height="3.125" fill="#F3D742"/>
<rect x="6.875" y="12.5" width="6.25" height="3.125" fill="#F3D742"/>
<rect x="3.75" y="15.625" width="6.25" height="3.125" fill="#F3D742"/>
<rect x="0.625" y="18.75" width="6.25" height="3.125" fill="#F3D742"/>
<rect x="0.625" y="21.875" width="3.125" height="3.125" fill="#F3D742"/>
<rect x="16.25" width="3.125" height="3.125" fill="#F9AB23"/>
<rect x="13.125" y="3.125" width="3.125" height="3.125" fill="#F9AB23"/>
<rect x="0.625" y="9.375" width="3.125" height="3.125" fill="#FFF1D9"/>
<rect x="10" y="6.25" width="3.125" height="3.125" fill="#F9AB23"/>
<rect x="6.875" y="15.625" width="3.125" height="3.125" fill="#F9AB23"/>
<rect x="0.625" y="21.875" width="3.125" height="3.125" fill="#F9AB23"/>
<rect x="3.75" y="18.75" width="3.125" height="3.125" fill="#F9AB23"/>
<rect x="26.64" y="14.7201" width="5.07" height="5.07" transform="rotate(-90 26.64 14.7201)" fill="#554826"/>
<rect x="24.95" y="11.3401" width="8.45" height="1.69" fill="#F3D742"/>
<rect x="28.33" y="16.41" width="8.45" height="1.69" transform="rotate(-90 28.33 16.41)" fill="#F3D742"/>
</svg>
