<svg width="34" height="28" viewBox="0 0 34 28" fill="none" xmlns="http://www.w3.org/2000/svg">
<rect x="0.0224915" y="4.25641" width="6.61917" height="16.5479" fill="#7EEAF5"/>
<rect x="0.0224915" y="0.946838" width="3.30958" height="19.8575" fill="#4BA0A9"/>
<rect x="16.5704" y="0.946838" width="3.30958" height="19.8575" fill="#7EEAF5"/>
<rect x="13.2609" y="4.25641" width="6.61917" height="16.5479" fill="#7EEAF5"/>
<rect x="3.33209" y="7.56604" width="13.2383" height="16.5479" fill="#7EEAF5"/>
<rect x="3.33209" y="4.25641" width="3.30958" height="19.8575" fill="#4BA0A9"/>
<rect x="6.64166" y="7.56604" width="6.61917" height="19.8575" fill="#7EEAF5"/>
<rect x="6.64166" y="7.56604" width="3.30958" height="19.8575" fill="#4BA0A9"/>
<rect x="9.95126" y="14.1852" width="3.30958" height="6.61917" fill="#4BA0A9"/>
<rect width="3.30958" height="3.30958" transform="matrix(1 0 0 -1 16.5704 20.8044)" fill="#F0FEFF"/>
<rect width="3.30958" height="3.30958" transform="matrix(1 0 0 -1 13.2609 24.1139)" fill="#F0FEFF"/>
<rect x="26.64" y="16.72" width="5.07" height="5.07" transform="rotate(-90 26.64 16.72)" fill="#265055"/>
<rect x="24.95" y="13.3401" width="8.45" height="1.69" fill="#7EEAF5"/>
<rect x="28.33" y="18.41" width="8.45" height="1.69" transform="rotate(-90 28.33 18.41)" fill="#7EEAF5"/>
</svg>
