<svg width="34" height="26" viewBox="0 0 34 26" fill="none" xmlns="http://www.w3.org/2000/svg">
<rect x="12.7028" y="6.91888" width="17.7838" height="10.1622" fill="#9DF57E"/>
<rect x="7.62158" y="8.18915" width="1.27027" height="7.62162" fill="#9DF57E" fill-opacity="0.5"/>
<rect x="17" y="3.2702" width="1.27027" height="7.62162" transform="rotate(-90 17 3.2702)" fill="#9DF57E" fill-opacity="0.5"/>
<rect x="3" y="1.2702" width="1.27027" height="7.62162" transform="rotate(-90 3 1.2702)" fill="#9DF57E" fill-opacity="0.5"/>
<rect x="11" y="21.2702" width="1.27027" height="7.62162" transform="rotate(-90 11 21.2702)" fill="#9DF57E" fill-opacity="0.5"/>
<rect x="1" y="25.2702" width="1.27027" height="7.62162" transform="rotate(-90 1 25.2702)" fill="#9DF57E" fill-opacity="0.5"/>
<rect x="11.4324" y="8.18915" width="1.27027" height="7.62162" fill="#9DF57E" fill-opacity="0.7"/>
<rect x="10.1621" y="9.45941" width="1.27027" height="5.08108" fill="#9DF57E" fill-opacity="0.5"/>
<rect x="5.08105" y="9.45941" width="1.27027" height="5.08108" fill="#9DF57E" fill-opacity="0.3"/>
<rect x="2.54053" y="10.7297" width="1.27027" height="2.54054" fill="#9DF57E" fill-opacity="0.1"/>
<rect y="10.7297" width="1.27027" height="2.54054" fill="#9DF57E" fill-opacity="0.05"/>
<rect x="13.973" y="8.18915" width="17.7838" height="7.62162" fill="#9DF57E"/>
<rect x="13.973" y="9.45941" width="19.0541" height="5.08108" fill="#9DF57E"/>
<rect width="1.27027" height="5.08108" transform="matrix(-1 0 0 1 33.027 9.45941)" fill="#5AC235"/>
</svg>
