<svg width="365" height="152" viewBox="0 0 365 152" fill="none"
    xmlns="http://www.w3.org/2000/svg">
    <rect x="13" y="16" width="340" height="124" fill="#05141C"/>
    <rect x="20" y="4" width="325" height="4" fill="#001D2A"/>
    <rect x="24" y="12" width="317" height="4" fill="#001D2A"/>
    <rect x="24" y="140" width="317" height="4" fill="#001D2A"/>
    <rect x="24" y="136" width="317" height="4" fill="#040D12"/>
    <rect x="24" y="16" width="317" height="4" fill="#040D12"/>
    <rect x="16" y="132" width="12" height="4" fill="#040D12"/>
    <rect x="16" y="20" width="12" height="4" fill="#040D12"/>
    <rect x="337" y="20" width="12" height="4" fill="#040D12"/>
    <rect x="16" y="127" width="4" height="5" fill="#040D12"/>
    <rect x="16" y="24" width="4" height="8" fill="#040D12"/>
    <rect x="345" y="24" width="4" height="8" fill="#040D12"/>
    <rect x="20" y="148" width="325" height="4" fill="#001D2A"/>
    <rect x="1.52588e-05" y="132" width="108" height="4.00001" transform="rotate(-90 1.52588e-05 132)" fill="#001D2A"/>
    <rect x="8" y="130" width="104" height="4.00001" transform="rotate(-90 8 130)" fill="#001D2A"/>
    <rect x="353" y="130" width="104" height="4.00001" transform="rotate(-90 353 130)" fill="#001D2A"/>
    <rect x="361" y="132" width="108" height="4.00001" transform="rotate(-90 361 132)" fill="#001D2A"/>
    <rect x="12" y="8" width="8" height="4" fill="#001D2A"/>
    <rect x="16" y="16" width="8" height="4" fill="#001D2A"/>
    <rect x="341" y="16" width="8" height="4" fill="#001D2A"/>
    <rect x="8" y="12" width="4" height="4" fill="#001D2A"/>
    <rect x="4.00002" y="16" width="4" height="8" fill="#001D2A"/>
    <rect x="12" y="20" width="4" height="8" fill="#001D2A"/>
    <rect x="4.00002" y="140" width="8" height="4" transform="rotate(-90 4.00002 140)" fill="#001D2A"/>
    <rect x="12" y="136" width="8" height="4" transform="rotate(-90 12 136)" fill="#001D2A"/>
    <rect x="8" y="144" width="4" height="4" transform="rotate(-90 8 144)" fill="#001D2A"/>
    <rect x="12" y="148" width="4" height="8" transform="rotate(-90 12 148)" fill="#001D2A"/>
    <rect x="16" y="140" width="4" height="8" transform="rotate(-90 16 140)" fill="#001D2A"/>
    <rect x="353" y="148" width="8" height="4" transform="rotate(180 353 148)" fill="#001D2A"/>
    <rect x="349" y="140" width="8" height="4" transform="rotate(180 349 140)" fill="#001D2A"/>
    <rect x="357" y="144" width="4" height="4" transform="rotate(180 357 144)" fill="#001D2A"/>
    <rect x="361" y="140" width="4" height="8" transform="rotate(180 361 140)" fill="#001D2A"/>
    <rect x="353" y="136" width="4" height="8" transform="rotate(180 353 136)" fill="#001D2A"/>
    <rect x="361" y="16" width="8" height="4" transform="rotate(90 361 16)" fill="#001D2A"/>
    <rect x="353" y="20" width="8" height="4" transform="rotate(90 353 20)" fill="#001D2A"/>
    <rect x="357" y="12" width="4" height="4" transform="rotate(90 357 12)" fill="#001D2A"/>
    <rect x="353" y="8" width="4" height="8" transform="rotate(90 353 8)" fill="#001D2A"/>
    <rect x="20" y="8" width="325" height="4" fill="#0F5164"/>
    <rect x="20" y="144" width="325" height="4" fill="#0F5164"/>
    <rect x="8" y="24" width="108" height="3.99999" transform="rotate(90 8 24)" fill="#0F5164"/>
    <rect x="361" y="24" width="108" height="3.99999" transform="rotate(90 361 24)" fill="#0F5164"/>
    <rect x="341" y="140" width="12" height="4" fill="#0F5164"/>
    <rect x="12" y="128" width="12" height="4" transform="rotate(90 12 128)" fill="#0F5164"/>
    <rect x="24" y="16" width="12" height="4" transform="rotate(-180 24 16)" fill="#0F5164"/>
    <rect x="353" y="28" width="12" height="4" transform="rotate(-90 353 28)" fill="#0F5164"/>
    <rect x="349" y="136" width="8" height="4" fill="#0F5164"/>
    <rect x="16" y="136" width="8" height="4" transform="rotate(90 16 136)" fill="#0F5164"/>
    <rect x="16" y="20" width="8" height="4" transform="rotate(-180 16 20)" fill="#0F5164"/>
    <rect x="349" y="20" width="8" height="4" transform="rotate(-90 349 20)" fill="#0F5164"/>
    <rect x="353" y="136" width="8" height="4" transform="rotate(-90 353 136)" fill="#0F5164"/>
    <rect x="16" y="140" width="8" height="4" fill="#0F5164"/>
    <rect x="12" y="20" width="8" height="4" transform="rotate(90 12 20)" fill="#0F5164"/>
    <rect x="349" y="16" width="8" height="4" transform="rotate(-180 349 16)" fill="#0F5164"/>
    <rect x="12" y="130" width="104" height="4.00001" transform="rotate(-90 12 130)" fill="#040D12"/>
    <rect x="349" y="130" width="104" height="4.00001" transform="rotate(-90 349 130)" fill="#040D12"/>
    <rect x="345" y="124" width="4" height="12" fill="#040D12"/>
    <rect x="337" y="136" width="4" height="12" transform="rotate(-90 337 136)" fill="#040D12"/>
    <rect width="11" height="20.2222" transform="matrix(-1 0 0 1 66 0)" fill="#011D2B"/>
    <rect width="5" height="14" transform="matrix(-1 0 0 1 63 3)" fill="#56AAB3"/>
    <rect width="11" height="20.2222" transform="matrix(-1 0 0 1 310 0)" fill="#011D2B"/>
    <rect width="5" height="14" transform="matrix(-1 0 0 1 307 3)" fill="#56AAB3"/>
</svg>
