<svg width="237" height="237" viewBox="0 0 237 237" fill="none"
    xmlns="http://www.w3.org/2000/svg" role="img">
    <path fill="#05141C" d="M20 20h197v197H20z"></path>
    <path fill="#001D2A" d="M28 8h181v4H28zM32 16h173v4H32zM32 217h173v4H32z"></path>
    <path fill="#040D12" d="M32 213h173v4H32zM32 20h173v4H32zM24 209h12v4H24zM24 24h12v4H24zM201 24h12v4h-12zM24 201h4v8h-4zM24 28h4v8h-4zM209 28h4v8h-4z"></path>
    <path fill="#001D2A" d="M28 225h181v4H28zM8 209V28h4v181zM16 205V32h4v173zM217 205V32h4v173zM225 209V28h4v181zM20 12h8v4h-8zM24 20h8v4h-8zM205 20h8v4h-8zM16 16h4v4h-4zM12 20h4v8h-4zM20 24h4v8h-4zM12 217v-8h4v8zM20 213v-8h4v8zM16 221v-4h4v4zM20 225v-4h8v4zM24 217v-4h8v4zM217 225h-8v-4h8zM213 217h-8v-4h8zM221 221h-4v-4h4zM225 217h-4v-8h4zM217 213h-4v-8h4zM225 20v8h-4v-8zM217 24v8h-4v-8zM221 16v4h-4v-4zM217 12v4h-8v-4z"></path>
    <path fill="#0F5164" d="M28 12h181v4H28zM28 221h181v4H28zM16 28v181h-4V28zM225 28v181h-4V28zM205 217h12v4h-12zM20 205v12h-4v-12zM32 20H20v-4h12zM217 32V20h4v12zM213 213h8v4h-8zM24 213v8h-4v-8zM24 24h-8v-4h8zM213 24v-8h4v8zM217 213v-8h4v8zM24 217h8v4h-8zM20 24v8h-4v-8zM213 20h-8v-4h8z"></path>
    <path fill="#040D12" d="M20 205V32h4v173zM213 205V32h4v173zM209 201h4v12h-4z"></path>
    <path fill="#040D12" d="M201 213v-4h12v4z"></path>
    <path d="M125 3.5V0h-14v3.5h-3.5V7H104v14h3.5v3.5h3.5V28h14v-3.5h3.5V21h3.5V7h-3.5V3.5H125Z" fill="#001621"></path>
    <path d="M123.5 5.75V3h-11v2.75h-2.75V8.5H107v11h2.75v2.75h2.75V25h11v-2.75h2.75V19.5H129v-11h-2.75V5.75h-2.75Z" fill="#002537"></path>
    <path d="M122.086 17.96h-2.256v-1.088h-1.136V15.72h-1.136v-1.168h-1.12v3.408h-2.32V9.992h2.256v1.088h1.152v1.136h1.136v1.168h1.12V9.992h2.304v7.968Z" fill="#fff"></path>
    <path d="M125 212.5V209h-14v3.5h-3.5v3.5H104v14h3.5v3.5h3.5v3.5h14v-3.5h3.5V230h3.5v-14h-3.5v-3.5H125Z" fill="#001621"></path>
    <path d="M123.5 214.75V212h-11v2.75h-2.75v2.75H107v11h2.75v2.75h2.75V234h11v-2.75h2.75v-2.75H129v-11h-2.75v-2.75h-2.75Z" fill="#002537"></path>
    <path d="M122.086 225.808h-1.088v1.152h-5.728v-1.088h-1.152v-1.168h2.256v1.104h3.44v-2.224h-4.544v-1.152h-1.152v-2.304h1.088v-1.136h4.592v1.088h1.152v1.152h-2.256v-1.104h-2.288v2.224h4.544v1.152h1.136v2.304Z" fill="#fff"></path>
    <path d="M21 108.5V105H7v3.5H3.5v3.5H0v14h3.5v3.5H7v3.5h14v-3.5h3.5V126H28v-14h-3.5v-3.5H21Z" fill="#001621"></path>
    <path d="M19.5 110.75V108h-11v2.75H5.75v2.75H3v11h2.75v2.75H8.5V130h11v-2.75h2.75v-2.75H25v-11h-2.75v-2.75H19.5Z" fill="#002537"></path>
    <path d="M18.086 122.96H15.83v-1.088h-1.136v-1.184h-1.12v1.12h-1.136v1.152h-2.32v-7.968h2.256v3.392h1.12v-1.104h1.168v1.104h1.12v-3.392h2.304v7.968Z" fill="#fff"></path>
    <path d="M230 108.5V105h-14v3.5h-3.5v3.5H209v14h3.5v3.5h3.5v3.5h14v-3.5h3.5V126h3.5v-14h-3.5v-3.5H230Z" fill="#001621"></path>
    <path d="M228.5 110.75V108h-11v2.75h-2.75v2.75H212v11h2.75v2.75h2.75V130h11v-2.75h2.75v-2.75H234v-11h-2.75v-2.75h-2.75Z" fill="#002537"></path>
    <path d="M227.23 122.896h-8.064v-8.048h8.064v1.12h-5.744v2.288h3.44v1.184h-3.44v2.288h5.744v1.168Z" fill="#fff"></path>
</svg>
