<svg width="24" height="36" viewBox="0 0 24 36" fill="none" xmlns="http://www.w3.org/2000/svg">
<rect x="10.8691" y="5.80017" width="7.5" height="1.27273" transform="rotate(15 10.8691 5.80017)" fill="#017892"/>
<rect x="9.33234" y="6.70605" width="10" height="1.27273" transform="rotate(15 9.33234 6.70605)" fill="#24A7C4"/>
<rect x="7.79552" y="7.61188" width="12.5" height="5.09091" transform="rotate(15 7.79552 7.61188)" fill="#24A7C4"/>
<rect x="6.4779" y="12.5293" width="2.5" height="1.27273" transform="rotate(15 6.4779 12.5293)" fill="#24A7C4"/>
<rect x="16.1372" y="15.1175" width="2.5" height="1.27273" transform="rotate(15 16.1372 15.1175)" fill="#24A7C4"/>
<rect x="8.7825" y="18.4173" width="5" height="1.27273" transform="rotate(15 8.7825 18.4173)" fill="#24A7C4"/>
<rect x="7.24568" y="19.3232" width="7.5" height="1.27273" transform="rotate(15 7.24568 19.3232)" fill="#24A7C4"/>
<rect x="5.70887" y="20.229" width="10" height="1.27273" transform="rotate(15 5.70887 20.229)" fill="#24A7C4"/>
<rect x="5.37946" y="21.4584" width="10" height="1.27273" transform="rotate(15 5.37946 21.4584)" fill="#24A7C4"/>
<rect x="5.05006" y="22.6877" width="10" height="1.27273" transform="rotate(15 5.05006 22.6877)" fill="#24A7C4"/>
<rect x="4.72066" y="23.9171" width="10" height="1.27273" transform="rotate(15 4.72066 23.9171)" fill="#24A7C4"/>
<rect x="5.59866" y="25.47" width="7.5" height="1.27273" transform="rotate(15 5.59866 25.47)" fill="#24A7C4"/>
<rect x="6.47665" y="27.0228" width="5" height="1.27273" transform="rotate(15 6.47665 27.0228)" fill="#D9D9D9"/>
<rect width="5" height="1.27273" transform="matrix(-0.965926 -0.258819 -0.258819 0.965926 11.3063 28.317)" fill="#24A7C4"/>
<rect x="5.26925" y="26.6993" width="1.25" height="1.27273" transform="rotate(15 5.26925 26.6993)" fill="#055771"/>
<rect width="1.25" height="1.27273" transform="matrix(-0.965926 -0.258819 -0.258819 0.965926 12.5137 28.6404)" fill="#055771"/>
<rect x="3.73243" y="27.6052" width="5" height="2.54545" transform="rotate(15 3.73243 27.6052)" fill="#055771"/>
<rect width="5" height="2.54545" transform="matrix(-0.965926 -0.258819 -0.258819 0.965926 13.3917 30.1934)" fill="#055771"/>
<rect x="3.07362" y="30.0638" width="5" height="1.27273" transform="rotate(15 3.07362 30.0638)" fill="#055771"/>
<rect x="3.95162" y="31.6168" width="7.5" height="1.27273" transform="rotate(15 3.95162 31.6168)" fill="#055771"/>
<rect width="5" height="1.27273" transform="matrix(-0.965926 -0.258819 -0.258819 0.965926 12.7329 32.652)" fill="#055771"/>
<rect x="3.18384" y="24.8229" width="2.5" height="2.54545" transform="rotate(15 3.18384 24.8229)" fill="#017892"/>
<rect width="2.5" height="2.54545" transform="matrix(-0.965926 -0.258819 -0.258819 0.965926 15.2579 28.0582)" fill="#017892"/>
<rect x="2.52502" y="27.2817" width="1.25" height="3.81818" transform="rotate(15 2.52502 27.2817)" fill="#017892"/>
<rect width="1.25" height="3.81818" transform="matrix(-0.965926 -0.258819 -0.258819 0.965926 14.5991 30.5169)" fill="#017892"/>
<rect x="8.89272" y="13.1764" width="7.5" height="5.09091" transform="rotate(15 8.89272 13.1764)" fill="#78FEFF"/>
<rect x="6.14849" y="13.7587" width="12.5" height="2.54545" transform="rotate(15 6.14849 13.7587)" fill="#78FEFF"/>
<rect x="5.48969" y="16.2173" width="2.5" height="3.81818" transform="rotate(15 5.48969 16.2173)" fill="#6AD7D8"/>
<rect x="15.1489" y="18.8055" width="2.5" height="3.81818" transform="rotate(15 15.1489 18.8055)" fill="#6AD7D8"/>
<rect x="4.50146" y="19.9055" width="1.25" height="5.09091" transform="rotate(15 4.50146 19.9055)" fill="#52999A"/>
<rect x="15.3681" y="22.8172" width="1.25" height="5.09091" transform="rotate(15 15.3681 22.8172)" fill="#52999A"/>
<rect x="15.1489" y="18.8055" width="2.5" height="2.54545" transform="rotate(15 15.1489 18.8055)" fill="#6AD7D8"/>
<rect x="7.57509" y="18.0938" width="1.25" height="1.27273" transform="rotate(15 7.57509 18.0938)" fill="#78FEFF"/>
<rect x="13.6121" y="19.7114" width="1.25" height="1.27273" transform="rotate(15 13.6121 19.7114)" fill="#78FEFF"/>
<rect x="9.33234" y="6.70605" width="1.25" height="1.27273" transform="rotate(15 9.33234 6.70605)" fill="#017892"/>
<rect x="7.79552" y="7.61188" width="1.25" height="1.27273" transform="rotate(15 7.79552 7.61188)" fill="#136AA9"/>
<rect x="18.6622" y="10.5236" width="1.25" height="1.27273" transform="rotate(15 18.6622 10.5236)" fill="#136AA9"/>
<rect x="17.7842" y="8.9707" width="1.25" height="1.27273" transform="rotate(15 17.7842 8.9707)" fill="#017892"/>
<rect x="4.61167" y="14.6646" width="1.25" height="1.27273" transform="rotate(15 4.61167 14.6646)" fill="#017892"/>
<rect width="1.25" height="1.27273" transform="matrix(-0.965926 -0.258819 -0.258819 0.965926 19.1006 18.5468)" fill="#017892"/>
<rect x="12.5942" y="4.19189" width="5" height="1" transform="rotate(15 12.5942 4.19189)" fill="white" fill-opacity="0.5"/>
<rect x="11.8871" y="2.9671" width="7" height="1" transform="rotate(15 11.8871 2.9671)" fill="white" fill-opacity="0.3"/>
<rect x="11.18" y="1.74237" width="9" height="1" transform="rotate(15 11.18 1.74237)" fill="white" fill-opacity="0.2"/>
<rect x="10.4729" y="0.517639" width="11" height="1" transform="rotate(15 10.4729 0.517639)" fill="white" fill-opacity="0.05"/>
</svg>
