<svg width="13" height="14" viewBox="0 0 13 14" fill="none" xmlns="http://www.w3.org/2000/svg">
<rect x="1" width="11" height="1" fill="#FFA506"/>
<rect width="11" height="1" transform="matrix(1 0 0 -1 1 14)" fill="#FFA506"/>
<rect y="1" width="1" height="2" fill="#FFA506"/>
<rect width="1" height="2" transform="matrix(1 0 0 -1 0 13)" fill="#FFA506"/>
<rect x="12" y="1" width="1" height="2" fill="#903003"/>
<rect width="1" height="2" transform="matrix(1 0 0 -1 12 13)" fill="#903003"/>
<rect x="1" y="1" width="11" height="1" fill="#C66201"/>
<rect width="11" height="1" transform="matrix(1 0 0 -1 1 13)" fill="#C66201"/>
<rect x="1" y="2" width="11" height="1" fill="#8C3000"/>
<rect width="11" height="1" transform="matrix(1 0 0 -1 1 12)" fill="#8C3000"/>
<rect x="3" y="3" width="1" height="8" fill="#602100"/>
<rect x="6" y="3" width="1" height="8" fill="#602100"/>
<rect x="9" y="3" width="1" height="8" fill="#602100"/>
<rect x="1" y="3" width="2" height="1" fill="#F4A511"/>
<rect x="1" y="10" width="2" height="1" fill="#733104"/>
<rect y="4" width="1" height="6" fill="#F4A511"/>
<rect x="12" y="4" width="1" height="6" fill="#733104"/>
<rect x="8" y="4" width="1" height="6" fill="#733104"/>
<rect x="5" y="4" width="1" height="6" fill="#733104"/>
<rect x="2" y="4" width="1" height="6" fill="#733104"/>
<rect x="11" y="4" width="1" height="6" fill="#C76400"/>
<rect x="7" y="4" width="1" height="6" fill="#C76400"/>
<rect x="4" y="4" width="1" height="6" fill="#C76400"/>
<rect x="1" y="4" width="1" height="6" fill="#C76400"/>
<rect x="4" y="3" width="2" height="1" fill="#733104"/>
<rect x="4" y="10" width="2" height="1" fill="#F4A511"/>
<rect x="7" y="3" width="2" height="1" fill="#733104"/>
<rect x="7" y="10" width="2" height="1" fill="#F4A511"/>
<rect x="10" y="3" width="2" height="1" fill="#F4A511"/>
<rect x="10" y="3" width="1" height="7" fill="#F4A511"/>
<rect x="10" y="10" width="2" height="1" fill="#F4A511"/>
<rect x="11" y="10" width="1" height="1" fill="#733104"/>
<rect x="8" y="10" width="1" height="1" fill="#733104"/>
<rect x="5" y="10" width="1" height="1" fill="#733104"/>
</svg>
