<svg width="53" height="53" viewBox="0 0 53 53" fill="none" xmlns="http://www.w3.org/2000/svg">
<g filter="url(#filter0_f_6_3365)">
<circle cx="26.5" cy="26.5" r="14.5" fill="white" fill-opacity="0.2"/>
</g>
<rect x="22.75" y="14" width="7.5" height="1.27273" fill="#464646"/>
<rect x="21.5" y="15.2728" width="10" height="1.27273" fill="#303030"/>
<rect x="20.25" y="16.5455" width="12.5" height="5.09091" fill="#303030"/>
<rect x="20.25" y="21.6364" width="2.5" height="1.27273" fill="#303030"/>
<rect x="30.25" y="21.6364" width="2.5" height="1.27273" fill="#303030"/>
<rect x="24" y="26.7272" width="5" height="1.27273" fill="#FBFBFB"/>
<rect x="22.75" y="28" width="7.5" height="1.27273" fill="#FBFBFB"/>
<rect x="21.5" y="29.2728" width="10" height="1.27273" fill="#FBFBFB"/>
<rect x="21.5" y="30.5455" width="10" height="1.27273" fill="#FBFBFB"/>
<rect x="21.5" y="31.8182" width="10" height="1.27273" fill="#FBFBFB"/>
<rect x="21.5" y="33.0909" width="10" height="1.27273" fill="#FBFBFB"/>
<rect x="22.75" y="34.3636" width="7.5" height="1.27273" fill="#FBFBFB"/>
<rect x="24" y="35.6364" width="5" height="1.27273" fill="#D9D9D9"/>
<rect width="5" height="1.27273" transform="matrix(-1 0 0 1 29 35.6364)" fill="#FBFBFB"/>
<rect x="22.75" y="35.6364" width="1.25" height="1.27273" fill="white"/>
<rect width="1.25" height="1.27273" transform="matrix(-1 0 0 1 30.25 35.6364)" fill="white"/>
<rect x="21.5" y="36.9091" width="5" height="2.54545" fill="#303030"/>
<rect width="5" height="2.54545" transform="matrix(-1 0 0 1 31.5 36.9091)" fill="#303030"/>
<rect x="21.5" y="39.4545" width="5" height="1.27273" fill="#303030"/>
<rect x="22.75" y="40.7272" width="7.5" height="1.27273" fill="#303030"/>
<rect width="5" height="1.27273" transform="matrix(-1 0 0 1 31.5 39.4545)" fill="#303030"/>
<rect x="20.25" y="34.3636" width="2.5" height="2.54545" fill="white"/>
<rect width="2.5" height="2.54545" transform="matrix(-1 0 0 1 32.75 34.3636)" fill="white"/>
<rect x="20.25" y="36.9091" width="1.25" height="3.81818" fill="white"/>
<rect width="1.25" height="3.81818" transform="matrix(-1 0 0 1 32.75 36.9091)" fill="white"/>
<rect x="22.75" y="21.6364" width="7.5" height="5.09091" fill="#78FEFF"/>
<rect x="20.25" y="22.9091" width="12.5" height="2.54545" fill="#78FEFF"/>
<rect x="20.25" y="25.4545" width="2.5" height="3.81818" fill="#6AD7D8"/>
<rect x="30.25" y="25.4545" width="2.5" height="3.81818" fill="#6AD7D8"/>
<rect x="20.25" y="29.2728" width="1.25" height="5.09091" fill="white"/>
<rect x="31.5" y="29.2728" width="1.25" height="5.09091" fill="white"/>
<rect x="30.25" y="25.4545" width="2.5" height="2.54545" fill="#6AD7D8"/>
<rect x="22.75" y="26.7272" width="1.25" height="1.27273" fill="#78FEFF"/>
<rect x="29" y="26.7272" width="1.25" height="1.27273" fill="#78FEFF"/>
<rect x="21.5" y="15.2728" width="1.25" height="1.27273" fill="#464646"/>
<rect x="20.25" y="16.5455" width="1.25" height="1.27273" fill="#303030"/>
<rect x="31.5" y="16.5455" width="1.25" height="1.27273" fill="#303030"/>
<rect x="30.25" y="15.2728" width="1.25" height="1.27273" fill="#464646"/>
<rect x="19" y="24.1818" width="1.25" height="1.27273" fill="#464646"/>
<rect width="1.25" height="1.27273" transform="matrix(-1 0 0 1 34 24.1818)" fill="#464646"/>
<rect x="24" y="29" width="5" height="1" fill="#C1C1C1"/>
<rect x="24" y="29" width="2" height="1" fill="#FF6868"/>
<rect x="27" y="29" width="2" height="1" fill="#68AEFF"/>
<rect x="24" y="12" width="5" height="1" fill="white" fill-opacity="0.5"/>
<rect x="23" y="11" width="7" height="1" fill="white" fill-opacity="0.3"/>
<rect x="22" y="10" width="9" height="1" fill="white" fill-opacity="0.2"/>
<rect x="21" y="9" width="11" height="1" fill="white" fill-opacity="0.05"/>
<defs>
<filter id="filter0_f_6_3365" x="0" y="0" width="53" height="53" filterUnits="userSpaceOnUse" color-interpolation-filters="sRGB">
<feFlood flood-opacity="0" result="BackgroundImageFix"/>
<feBlend mode="normal" in="SourceGraphic" in2="BackgroundImageFix" result="shape"/>
<feGaussianBlur stdDeviation="6" result="effect1_foregroundBlur_6_3365"/>
</filter>
</defs>
</svg>
