<svg width="27" height="37" viewBox="0 0 27 37" fill="none" xmlns="http://www.w3.org/2000/svg">
<rect x="12.5103" y="30.8921" width="7.5" height="1.27273" transform="rotate(-158.463 12.5103 30.8921)" fill="#920201"/>
<rect x="14.1402" y="30.1671" width="10" height="1.27273" transform="rotate(-158.463 14.1402 30.1671)" fill="#C43924"/>
<rect x="15.7702" y="29.4421" width="12.5" height="5.09091" transform="rotate(-158.463 15.7702 29.4421)" fill="#C43924"/>
<rect x="17.639" y="24.7066" width="2.5" height="1.27273" transform="rotate(-158.463 17.639 24.7066)" fill="#C43924"/>
<rect x="8.33721" y="21.0356" width="2.5" height="1.27273" transform="rotate(-158.463 8.33721 21.0356)" fill="#C43924"/>
<rect x="16.0197" y="18.5945" width="5" height="1.27273" transform="rotate(-158.463 16.0197 18.5945)" fill="#C43924"/>
<rect x="17.6496" y="17.8695" width="7.5" height="1.27273" transform="rotate(-158.463 17.6496 17.8695)" fill="#C43924"/>
<rect x="19.2796" y="17.1445" width="10" height="1.27273" transform="rotate(-158.463 19.2796 17.1445)" fill="#C43924"/>
<rect x="19.7468" y="15.9606" width="10" height="1.27273" transform="rotate(-158.463 19.7468 15.9606)" fill="#C43924"/>
<rect x="20.214" y="14.7768" width="10" height="1.27273" transform="rotate(-158.463 20.214 14.7768)" fill="#C43924"/>
<rect x="20.6812" y="13.593" width="10" height="1.27273" transform="rotate(-158.463 20.6812 13.593)" fill="#C43924"/>
<rect x="19.9857" y="11.9502" width="7.5" height="1.27273" transform="rotate(-158.463 19.9857 11.9502)" fill="#C43924"/>
<rect x="19.2902" y="10.3074" width="5" height="1.27273" transform="rotate(-158.463 19.2902 10.3074)" fill="#D9D9D9"/>
<rect width="5" height="1.27273" transform="matrix(0.930183 0.367097 0.367097 -0.930183 14.6393 8.47198)" fill="#C43924"/>
<rect x="20.4529" y="10.7663" width="1.25" height="1.27273" transform="rotate(-158.463 20.4529 10.7663)" fill="#710505"/>
<rect width="1.25" height="1.27273" transform="matrix(0.930183 0.367097 0.367097 -0.930183 13.4766 8.01306)" fill="#710505"/>
<rect x="22.0829" y="10.0413" width="5" height="2.54545" transform="rotate(-158.463 22.0829 10.0413)" fill="#710505"/>
<rect width="5" height="2.54545" transform="matrix(0.930183 0.367097 0.367097 -0.930183 12.7811 6.37036)" fill="#710505"/>
<rect x="23.0173" y="7.67358" width="5" height="1.27273" transform="rotate(-158.463 23.0173 7.67358)" fill="#710505"/>
<rect x="22.3218" y="6.03082" width="7.5" height="1.27273" transform="rotate(-158.463 22.3218 6.03082)" fill="#710505"/>
<rect width="5" height="1.27273" transform="matrix(0.930183 0.367097 0.367097 -0.930183 13.7155 4.00262)" fill="#710505"/>
<rect x="22.3112" y="12.8679" width="2.5" height="2.54545" transform="rotate(-158.463 22.3112 12.8679)" fill="#920201"/>
<rect width="2.5" height="2.54545" transform="matrix(0.930183 0.367097 0.367097 -0.930183 10.6839 8.27924)" fill="#920201"/>
<rect x="23.2456" y="10.5002" width="1.25" height="3.81818" transform="rotate(-158.463 23.2456 10.5002)" fill="#920201"/>
<rect width="1.25" height="3.81818" transform="matrix(0.930183 0.367097 0.367097 -0.930183 11.6183 5.91144)" fill="#920201"/>
<rect x="15.3136" y="23.7889" width="7.5" height="5.09091" transform="rotate(-158.463 15.3136 23.7889)" fill="#78FEFF"/>
<rect x="18.1063" y="23.5227" width="12.5" height="2.54545" transform="rotate(-158.463 18.1063 23.5227)" fill="#78FEFF"/>
<rect x="19.0407" y="21.155" width="2.5" height="3.81818" transform="rotate(-158.463 19.0407 21.155)" fill="#6AD7D8"/>
<rect x="9.73884" y="17.4841" width="2.5" height="3.81818" transform="rotate(-158.463 9.73884 17.4841)" fill="#6AD7D8"/>
<rect x="20.4423" y="17.6034" width="1.25" height="5.09091" transform="rotate(-158.463 20.4423 17.6034)" fill="#52999A"/>
<rect x="9.97777" y="13.4736" width="1.25" height="5.09091" transform="rotate(-158.463 9.97777 13.4736)" fill="#52999A"/>
<rect x="9.73884" y="17.4841" width="2.5" height="2.54545" transform="rotate(-158.463 9.73884 17.4841)" fill="#6AD7D8"/>
<rect x="17.1824" y="19.0534" width="1.25" height="1.27273" transform="rotate(-158.463 17.1824 19.0534)" fill="#78FEFF"/>
<rect x="11.3688" y="16.759" width="1.25" height="1.27273" transform="rotate(-158.463 11.3688 16.759)" fill="#78FEFF"/>
<rect x="14.1402" y="30.1671" width="1.25" height="1.27273" transform="rotate(-158.463 14.1402 30.1671)" fill="#920201"/>
<rect x="15.7702" y="29.4421" width="1.25" height="1.27273" transform="rotate(-158.463 15.7702 29.4421)" fill="#A92713"/>
<rect x="5.30563" y="25.3123" width="1.25" height="1.27273" transform="rotate(-158.463 5.30563 25.3123)" fill="#A92713"/>
<rect x="6.00114" y="26.955" width="1.25" height="1.27273" transform="rotate(-158.463 6.00114 26.955)" fill="#920201"/>
<rect x="19.7362" y="22.7977" width="1.25" height="1.27273" transform="rotate(-158.463 19.7362 22.7977)" fill="#920201"/>
<rect width="1.25" height="1.27273" transform="matrix(0.930183 0.367097 0.367097 -0.930183 5.78346 17.2913)" fill="#920201"/>
<rect x="10.6134" y="32.2936" width="5" height="1" transform="rotate(-158.463 10.6134 32.2936)" fill="white" fill-opacity="0.5"/>
<rect x="11.1765" y="33.5909" width="7" height="1" transform="rotate(-158.463 11.1765 33.5909)" fill="white" fill-opacity="0.3"/>
<rect x="11.7395" y="34.8881" width="9" height="1" transform="rotate(-158.463 11.7395 34.8881)" fill="white" fill-opacity="0.2"/>
<rect x="12.3026" y="36.1854" width="11" height="1" transform="rotate(-158.463 12.3026 36.1854)" fill="white" fill-opacity="0.05"/>
</svg>
