<svg width="110" height="113" viewBox="0 0 110 113" fill="none" xmlns="http://www.w3.org/2000/svg">
<g filter="url(#filter0_d_4_1237)">
<rect x="9.77777" y="9.77778" width="90.4444" height="90.4444" fill="#262B44"/>
<rect x="9.77777" y="9.77778" width="90.4444" height="14.6667" fill="#082333"/>
<rect x="9.77777" y="24.4444" width="90.4444" height="15.8889" fill="#07202F"/>
<rect x="9.77777" y="40.3333" width="90.4444" height="14.6667" fill="#061E2C"/>
<rect x="9.77777" y="55" width="90.4444" height="14.6667" fill="#051A25"/>
<rect x="9.77777" y="69.6667" width="90.4444" height="15.8889" fill="#051721"/>
<rect x="9.77777" y="85.5556" width="90.4444" height="14.6667" fill="#05141C"/>
<rect x="9.77777" y="4.88889" width="90.4444" height="2.44444" fill="#0F5164"/>
<rect x="9.77777" y="102.667" width="90.4444" height="2.44444" fill="#0F4555"/>
<rect x="7.33333" y="9.77778" width="90.4444" height="2.44444" transform="rotate(90 7.33333 9.77778)" fill="#0F4555"/>
<rect x="7.33333" y="9.77778" width="18.3333" height="2.44444" transform="rotate(90 7.33333 9.77778)" fill="#0F5164"/>
<rect x="7.33333" y="30.5556" width="48.8889" height="2.44444" transform="rotate(90 7.33333 30.5556)" fill="#167F96"/>
<rect x="105.111" y="9.77778" width="90.4444" height="2.44444" transform="rotate(90 105.111 9.77778)" fill="#0F4555"/>
<rect x="105.111" y="9.77778" width="19.5556" height="2.44444" transform="rotate(90 105.111 9.77778)" fill="#0F5164"/>
<rect x="105.111" y="30.5556" width="51.3333" height="2.44444" transform="rotate(90 105.111 30.5556)" fill="#167F96"/>
<rect x="9.77777" y="2.44444" width="90.4444" height="2.44444" fill="#011D2B"/>
<rect x="9.77777" y="105.111" width="90.4444" height="2.44444" fill="#011D2B"/>
<rect x="9.77777" y="106.333" width="90.4444" height="2.44444" fill="#000C11"/>
<rect x="2.44444" y="100.222" width="90.4444" height="2.44444" transform="rotate(-90 2.44444 100.222)" fill="#011D2B"/>
<rect x="105.111" y="100.222" width="90.4444" height="2.44444" transform="rotate(-90 105.111 100.222)" fill="#011D2B"/>
<rect x="7.33333" y="4.88889" width="2.44444" height="2.44444" fill="#011D2B"/>
<rect x="9.77777" y="9.77778" width="2.44444" height="2.44444" fill="#011D2B"/>
<rect x="7.33333" y="7.33334" width="2.44444" height="2.44444" fill="#0F5164"/>
<rect x="9.77777" y="7.33334" width="2.44444" height="2.44444" fill="#0F5164"/>
<rect x="7.33333" y="9.77778" width="2.44444" height="2.44444" fill="#0F5164"/>
<rect x="100.222" y="4.88889" width="2.44444" height="2.44444" fill="#011D2B"/>
<rect x="102.667" y="7.33334" width="2.44444" height="2.44444" fill="#011D2B"/>
<rect x="97.7778" y="9.77778" width="2.44444" height="2.44444" fill="#011D2B"/>
<rect x="100.222" y="7.33334" width="2.44444" height="2.44444" fill="#0F5164"/>
<rect x="97.7778" y="7.33334" width="2.44444" height="2.44444" fill="#0F5164"/>
<rect x="100.222" y="9.77778" width="2.44444" height="2.44444" fill="#0F5164"/>
<rect x="4.88889" y="100.222" width="2.44444" height="2.44444" fill="#011D2B"/>
<rect x="7.33333" y="100.222" width="2.44444" height="2.44444" fill="#0F4555"/>
<rect x="7.33333" y="97.7778" width="2.44444" height="2.44444" fill="#0F4555"/>
<rect x="9.77777" y="100.222" width="2.44444" height="2.44444" fill="#0F4555"/>
<rect x="7.33333" y="102.667" width="2.44444" height="2.44444" fill="#011D2B"/>
<rect x="7.33333" y="105.111" width="2.44444" height="2.44444" fill="#000C11"/>
<rect x="4.88889" y="102.667" width="2.44444" height="2.44444" fill="#000C11"/>
<rect x="2.44444" y="100.222" width="2.44444" height="2.44444" fill="#00080C"/>
<rect x="105.111" y="100.222" width="2.44444" height="2.44444" fill="#00080C"/>
<rect x="102.667" y="102.667" width="2.44444" height="2.44444" fill="#000C11"/>
<rect x="100.222" y="105.111" width="2.44444" height="2.44444" fill="#000C11"/>
<rect x="9.77777" y="97.7778" width="2.44444" height="2.44444" fill="#011D2B"/>
<rect x="9.77777" y="95.3333" width="4.88889" height="2.44444" fill="#041016"/>
<rect x="97.7778" y="95.3333" width="2.44444" height="2.44444" fill="#041016"/>
<rect x="95.3333" y="95.3333" width="2.44444" height="2.44444" fill="#041016"/>
<rect x="4.88889" y="7.33334" width="2.44444" height="2.44444" fill="#011D2B"/>
<rect x="7.33333" y="12.2222" width="2.44444" height="85.5556" fill="#011D2B"/>
<rect x="100.222" y="12.2222" width="2.44444" height="85.5556" fill="#011D2B"/>
<rect x="97.7778" y="7.33334" width="2.44444" height="85.5556" transform="rotate(90 97.7778 7.33334)" fill="#011D2B"/>
<rect x="97.7778" y="100.222" width="2.44444" height="85.5556" transform="rotate(90 97.7778 100.222)" fill="#011D2B"/>
<rect x="97.7778" y="97.7778" width="2.44444" height="85.5556" transform="rotate(90 97.7778 97.7778)" fill="#041016"/>
<rect x="100.222" y="102.667" width="2.44444" height="2.44444" fill="#011D2B"/>
<rect x="100.222" y="100.222" width="2.44444" height="2.44444" fill="#0F4555"/>
<rect x="97.7778" y="100.222" width="2.44444" height="2.44444" fill="#0F4555"/>
<rect x="100.222" y="97.7778" width="2.44444" height="2.44444" fill="#0F4555"/>
<rect x="102.667" y="100.222" width="2.44444" height="2.44444" fill="#011D2B"/>
<rect x="97.7778" y="97.7778" width="2.44444" height="2.44444" fill="#011D2B"/>
<rect width="7.33333" height="12.2222" transform="matrix(-1 0 0 1 31.7778 0)" fill="#011D2B"/>
<rect width="2.44444" height="7.33333" transform="matrix(-1 0 0 1 29.3333 2.44444)" fill="#56AAB3"/>
<rect width="7.33333" height="12.2222" transform="matrix(-1 0 0 1 31.7778 97.7778)" fill="#011D2B"/>
<rect width="2.44444" height="7.33333" transform="matrix(-1 0 0 1 29.3333 100.222)" fill="#56AAB3"/>
<rect width="7.33333" height="12.2222" transform="matrix(-1 0 0 1 85.5556 97.7778)" fill="#011D2B"/>
<rect width="2.44444" height="7.33333" transform="matrix(-1 0 0 1 83.1111 100.222)" fill="#56AAB3"/>
<rect width="7.33333" height="12.2222" transform="matrix(-1 0 0 1 85.5556 0)" fill="#011D2B"/>
<rect width="2.44444" height="7.33333" transform="matrix(-1 0 0 1 83.1111 2.44444)" fill="#56AAB3"/>
<rect width="7.33333" height="12.2222" transform="matrix(4.37114e-08 1 1 -4.37114e-08 0 24.4444)" fill="#011D2B"/>
<rect width="2.44444" height="7.33333" transform="matrix(4.37114e-08 1 1 -4.37114e-08 2.44444 26.8889)" fill="#56AAB3"/>
<rect width="12.2222" height="12.2222" transform="matrix(4.37114e-08 1 1 -4.37114e-08 97.7778 18.3333)" fill="#011D2B"/>
<rect width="7.33333" height="7.33333" transform="matrix(4.37114e-08 1 1 -4.37114e-08 100.222 20.7778)" fill="#56AAB3"/>
<rect width="12.2222" height="12.2222" transform="matrix(4.37114e-08 1 1 -4.37114e-08 97.7778 80.6667)" fill="#011D2B"/>
<rect width="7.33333" height="7.33333" transform="matrix(4.37114e-08 1 1 -4.37114e-08 100.222 83.1111)" fill="#56AAB3"/>
<rect width="12.2222" height="12.2222" transform="matrix(4.37114e-08 1 1 -4.37114e-08 97.7778 50.1111)" fill="#011D2B"/>
<rect width="7.33333" height="7.33333" transform="matrix(4.37114e-08 1 1 -4.37114e-08 100.222 52.5556)" fill="#56AAB3"/>
<rect width="7.33333" height="12.2222" transform="matrix(4.37114e-08 1 1 -4.37114e-08 0 78.2222)" fill="#011D2B"/>
<rect width="2.44444" height="7.33333" transform="matrix(4.37114e-08 1 1 -4.37114e-08 2.44444 80.6667)" fill="#56AAB3"/>
<g opacity="0.15">
<path d="M30.5556 20.7778H40.3333V30.5556H30.5556V20.7778Z" fill="#D0C3BE"/>
<path d="M20.7778 30.5556H30.5556V40.3333H20.7778V30.5556Z" fill="#BBACA4"/>
<path d="M30.5556 30.5556H40.3333V40.3333H30.5556V30.5556Z" fill="#D4C8C1"/>
<path d="M40.3333 30.5556H50.1111V40.3333H40.3333V30.5556Z" fill="#C7B8AF"/>
<path d="M50.1111 30.5556H59.8889V40.3333H50.1111V30.5556Z" fill="#AA998F"/>
<path d="M59.8889 30.5556H69.6667V40.3333H59.8889V30.5556Z" fill="#9C8D84"/>
<path d="M69.6667 30.5556H79.4444V40.3333H69.6667V30.5556Z" fill="#74655D"/>
<path d="M79.4444 30.5556H89.2222V40.3333H79.4444V30.5556Z" fill="#96857D"/>
<path d="M79.4444 40.3333H89.2222V50.1111H79.4444V40.3333Z" fill="#8B7C76"/>
<path d="M79.4444 50.1111H89.2222V59.8889H79.4444V50.1111Z" fill="#8B7E77"/>
<path d="M79.4444 59.8889H89.2222V69.6667H79.4444V59.8889Z" fill="#746760"/>
<path d="M20.7778 40.3333H30.5556V50.1111H20.7778V40.3333Z" fill="#B5A79E"/>
<path d="M20.7778 50.1111H30.5556V59.8889H20.7778V50.1111Z" fill="#CAC1B6"/>
<path d="M30.5556 50.1111H40.3333V59.8889H30.5556V50.1111Z" fill="#2D221F"/>
<path d="M40.3333 50.1111H50.1111V59.8889H40.3333V50.1111Z" fill="#251C1A"/>
<path d="M50.1111 50.1111H59.8889V59.8889H50.1111V50.1111Z" fill="#D7CDC5"/>
<path d="M59.8889 50.1111H69.6667V59.8889H59.8889V50.1111Z" fill="#2A1E1E"/>
<path d="M69.6667 50.1111H79.4444V59.8889H69.6667V50.1111Z" fill="#2D231D"/>
<path d="M20.7778 59.8889H30.5556V69.6667H20.7778V59.8889Z" fill="#D5CBC3"/>
<path d="M30.5556 59.8889H40.3333V69.6667H30.5556V59.8889Z" fill="#D2CAC6"/>
<path d="M30.5556 69.6667H40.3333V79.4444H30.5556V69.6667Z" fill="#D0C7BC"/>
<path d="M30.5556 79.4444H40.3333V89.2222H30.5556V79.4444Z" fill="#EDE9E6"/>
<path d="M40.3333 69.6667H50.1111V79.4444H40.3333V69.6667Z" fill="#D3C8C1"/>
<path d="M50.1111 69.6667H59.8889V79.4444H50.1111V69.6667Z" fill="#C8BEB6"/>
<path d="M50.1111 79.4444H59.8889V89.2222H50.1111V79.4444Z" fill="#DFD7D0"/>
<path d="M59.8889 69.6667H69.6667V79.4444H59.8889V69.6667Z" fill="#776962"/>
<path d="M69.6667 69.6667H79.4444V79.4444H69.6667V69.6667Z" fill="#746762"/>
<path d="M69.6667 79.4444H79.4444V89.2222H69.6667V79.4444Z" fill="#A09894"/>
<path d="M40.3333 59.8889H50.1111V69.6667H40.3333V59.8889Z" fill="#B8ACA5"/>
<path d="M50.1111 59.8889H59.8889V69.6667H50.1111V59.8889Z" fill="#2A1E1E"/>
<path d="M59.8889 59.8889H69.6667V69.6667H59.8889V59.8889Z" fill="#AFA29B"/>
<path d="M69.6667 59.8889H79.4444V69.6667H69.6667V59.8889Z" fill="#A59B93"/>
<path d="M30.5556 40.3333H40.3333V50.1111H30.5556V40.3333Z" fill="#251C1A"/>
<path d="M40.3333 40.3333H50.1111V50.1111H40.3333V40.3333Z" fill="#1B1211"/>
<path d="M50.1111 40.3333H59.8889V50.1111H50.1111V40.3333Z" fill="#857770"/>
<path d="M59.8889 40.3333H69.6667V50.1111H59.8889V40.3333Z" fill="#251C1A"/>
<path d="M69.6667 40.3333H79.4444V50.1111H69.6667V40.3333Z" fill="#433933"/>
<path d="M40.3333 20.7778H50.1111V30.5556H40.3333V20.7778Z" fill="#D7CDC5"/>
<path d="M50.1111 20.7778H59.8889V30.5556H50.1111V20.7778Z" fill="#D0C7BC"/>
<path d="M59.8889 20.7778H69.6667V30.5556H59.8889V20.7778Z" fill="#C3B5AC"/>
<path d="M69.6667 20.7778H79.4444V30.5556H69.6667V20.7778Z" fill="#A3928A"/>
</g>

</g>
<defs>
<filter id="filter0_d_4_1237" x="0" y="0" width="110" height="113" filterUnits="userSpaceOnUse" color-interpolation-filters="sRGB">
<feFlood flood-opacity="0" result="BackgroundImageFix"/>
<feColorMatrix in="SourceAlpha" type="matrix" values="0 0 0 0 0 0 0 0 0 0 0 0 0 0 0 0 0 0 127 0" result="hardAlpha"/>
<feOffset dy="3"/>
<feComposite in2="hardAlpha" operator="out"/>
<feColorMatrix type="matrix" values="0 0 0 0 0 0 0 0 0 0 0 0 0 0 0 0 0 0 0.25 0"/>
<feBlend mode="normal" in2="BackgroundImageFix" result="effect1_dropShadow_4_1237"/>
<feBlend mode="normal" in="SourceGraphic" in2="effect1_dropShadow_4_1237" result="shape"/>
</filter>

</defs>
</svg>
