<svg width="28" height="28" viewBox="0 0 28 28" fill="none" xmlns="http://www.w3.org/2000/svg">
<g filter="url(#filter0_d_7_4936)">
<path d="M20.9444 3.36111V0H7.49999V3.36111H4.13888V6.72222H0.777771V20.1667H4.13888V23.5278H7.49999V26.8889H20.9444V23.5278H24.3055V20.1667H27.6667V6.72222H24.3055V3.36111H20.9444Z" fill="#011D2B"/>
</g>
<rect x="9.18056" y="8.40278" width="3.36111" height="8.40278" fill="#6DC2CA"/>
<rect x="9.18056" y="6.72222" width="1.68056" height="10.0833" fill="#597DCE"/>
<rect x="17.5833" y="6.72222" width="1.68056" height="10.0833" fill="#6DC2CA"/>
<rect x="15.9028" y="8.40278" width="3.36111" height="8.40278" fill="#6DC2CA"/>
<rect x="10.8611" y="10.0833" width="6.72222" height="8.40278" fill="#6DC2CA"/>
<rect x="10.8611" y="8.40278" width="1.68056" height="10.0833" fill="#597DCE"/>
<rect x="12.5417" y="10.0833" width="3.36111" height="10.0833" fill="#6DC2CA"/>
<rect x="12.5417" y="10.0833" width="1.68056" height="10.0833" fill="#597DCE"/>
<rect x="14.2222" y="13.4444" width="1.68056" height="3.36111" fill="#597DCE"/>
<rect width="1.68056" height="1.68056" transform="matrix(1 0 0 -1 17.5833 16.8056)" fill="#F0FEFF"/>
<rect width="1.68056" height="1.68056" transform="matrix(1 0 0 -1 15.9028 18.4861)" fill="#F0FEFF"/>
<defs>
<filter id="filter0_d_7_4936" x="0.777771" y="0" width="26.8889" height="27.8889" filterUnits="userSpaceOnUse" color-interpolation-filters="sRGB">
<feFlood flood-opacity="0" result="BackgroundImageFix"/>
<feColorMatrix in="SourceAlpha" type="matrix" values="0 0 0 0 0 0 0 0 0 0 0 0 0 0 0 0 0 0 127 0" result="hardAlpha"/>
<feOffset dy="1"/>
<feComposite in2="hardAlpha" operator="out"/>
<feColorMatrix type="matrix" values="0 0 0 0 0 0 0 0 0 0 0 0 0 0 0 0 0 0 0.25 0"/>
<feBlend mode="normal" in2="BackgroundImageFix" result="effect1_dropShadow_7_4936"/>
<feBlend mode="normal" in="SourceGraphic" in2="effect1_dropShadow_7_4936" result="shape"/>
</filter>
</defs>
</svg>
