<svg width="177" height="29" viewBox="0 0 177 29" fill="none" xmlns="http://www.w3.org/2000/svg">
<g filter="url(#filter0_d_4_1505)">
<rect x="5.55554" y="4" width="167.444" height="19.5556" fill="#0B2F44"/>
<rect x="5.55554" y="18.6667" width="167.444" height="4.88889" fill="#0E3952"/>
<rect x="36.1111" y="18.6667" width="4.88889" height="3.66667" transform="rotate(90 36.1111 18.6667)" fill="#0E3952"/>
<rect x="38.5555" y="13.7778" width="4.88889" height="3.66667" transform="rotate(90 38.5555 13.7778)" fill="#0E3952"/>
<rect x="41" y="8.88889" width="4.88889" height="3.66667" transform="rotate(90 41 8.88889)" fill="#0E3952"/>
<rect x="43.4444" y="4" width="4.88889" height="3.66667" transform="rotate(90 43.4444 4)" fill="#0E3952"/>
<rect x="70.3333" y="18.6667" width="4.88889" height="3.66667" transform="rotate(90 70.3333 18.6667)" fill="#0E3952"/>
<rect x="72.7778" y="13.7778" width="4.88889" height="3.66667" transform="rotate(90 72.7778 13.7778)" fill="#0E3952"/>
<rect x="75.2222" y="8.88889" width="4.88889" height="3.66667" transform="rotate(90 75.2222 8.88889)" fill="#0E3952"/>
<rect x="77.6667" y="4" width="4.88889" height="3.66667" transform="rotate(90 77.6667 4)" fill="#0E3952"/>
<rect x="104.556" y="18.6667" width="4.88889" height="3.66667" transform="rotate(90 104.556 18.6667)" fill="#0E3952"/>
<rect x="107" y="13.7778" width="4.88889" height="3.66667" transform="rotate(90 107 13.7778)" fill="#0E3952"/>
<rect x="109.444" y="8.88889" width="4.88889" height="3.66667" transform="rotate(90 109.444 8.88889)" fill="#0E3952"/>
<rect x="111.889" y="4" width="4.88889" height="3.66667" transform="rotate(90 111.889 4)" fill="#0E3952"/>
<rect x="138.778" y="18.6667" width="4.88889" height="3.66667" transform="rotate(90 138.778 18.6667)" fill="#0E3952"/>
<rect x="141.222" y="13.7778" width="4.88889" height="3.66667" transform="rotate(90 141.222 13.7778)" fill="#0E3952"/>
<rect x="143.667" y="8.88889" width="4.88889" height="3.66667" transform="rotate(90 143.667 8.88889)" fill="#0E3952"/>
<rect x="146.111" y="4" width="4.88889" height="3.66667" transform="rotate(90 146.111 4)" fill="#0E3952"/>
<rect x="5.55554" y="4" width="167.444" height="19.5556" fill="#FF6363"/>
<rect x="34.8889" y="11.3333" width="138.111" height="7.33333" fill="#FF6363"/>
<rect x="5.55554" y="18.6667" width="166.222" height="4.88889" fill="#F54343"/>
<rect x="36.1111" y="18.6667" width="4.88889" height="3.66667" transform="rotate(90 36.1111 18.6667)" fill="#F54343"/>
<rect x="38.5555" y="13.7778" width="4.88889" height="3.66667" transform="rotate(90 38.5555 13.7778)" fill="#F54343"/>
<rect x="41" y="8.88889" width="4.88889" height="3.66667" transform="rotate(90 41 8.88889)" fill="#F54343"/>
<rect x="43.4444" y="4" width="4.88889" height="3.66667" transform="rotate(90 43.4444 4)" fill="#F54343"/>
<rect x="70.3333" y="18.6667" width="4.88889" height="3.66667" transform="rotate(90 70.3333 18.6667)" fill="#F54343"/>
<rect x="72.7778" y="13.7778" width="4.88889" height="3.66667" transform="rotate(90 72.7778 13.7778)" fill="#F54343"/>
<rect x="75.2222" y="8.88889" width="4.88889" height="3.66667" transform="rotate(90 75.2222 8.88889)" fill="#F54343"/>
<rect x="77.6667" y="4" width="4.88889" height="3.66667" transform="rotate(90 77.6667 4)" fill="#F54343"/>
<rect x="104.556" y="18.6667" width="4.88889" height="3.66667" transform="rotate(90 104.556 18.6667)" fill="#F54343"/>
<rect x="107" y="13.7778" width="4.88889" height="3.66667" transform="rotate(90 107 13.7778)" fill="#F54343"/>
<rect x="109.444" y="8.88889" width="4.88889" height="3.66667" transform="rotate(90 109.444 8.88889)" fill="#F54343"/>
<rect x="111.889" y="4" width="4.88889" height="3.66667" transform="rotate(90 111.889 4)" fill="#F54343"/>
<rect x="138.778" y="18.6667" width="4.88889" height="3.66667" transform="rotate(90 138.778 18.6667)" fill="#F54343"/>
<rect x="141.222" y="13.7778" width="4.88889" height="3.66667" transform="rotate(90 141.222 13.7778)" fill="#F54343"/>
<rect x="143.667" y="8.88889" width="4.88889" height="3.66667" transform="rotate(90 143.667 8.88889)" fill="#F54343"/>
<rect x="146.111" y="4" width="4.88889" height="3.66667" transform="rotate(90 146.111 4)" fill="#F54343"/>
<rect x="3.1111" y="6.44445" width="2.44444" height="2.44444" fill="#011D2B"/>
<rect width="2.44444" height="2.44444" transform="matrix(-1 0 0 1 175.444 6.44445)" fill="#011D2B"/>
<rect x="3.1111" y="8.88889" width="2.44444" height="9.77778" fill="#011D2B"/>
<rect width="2.44444" height="8.55556" transform="matrix(-1 0 0 1 175.444 8.88889)" fill="#011D2B"/>
<rect width="2.44444" height="2.44444" transform="matrix(-1 0 0 1 175.444 16.2222)" fill="#011D2B"/>
<rect x="3.1111" y="4" width="2.44444" height="2.44444" fill="#011D2B"/>
<rect width="2.44444" height="2.44444" transform="matrix(-1 0 0 1 175.444 4)" fill="#011D2B"/>
<rect x="5.55554" y="6.44445" width="2.44444" height="2.44444" fill="#011D2B"/>
<rect width="2.44444" height="2.44444" transform="matrix(-1 0 0 1 173 6.44445)" fill="#011D2B"/>
<rect x="5.55554" y="18.6667" width="2.44444" height="2.44444" fill="#011D2B"/>
<rect width="2.44444" height="2.44444" transform="matrix(-1 0 0 1 173 18.6667)" fill="#011D2B"/>
<rect x="3.1111" y="21.1111" width="2.44444" height="2.44444" fill="#011D2B"/>
<rect width="2.44444" height="2.44444" transform="matrix(-1 0 0 1 175.444 21.1111)" fill="#011D2B"/>
<rect x="5.55554" y="4" width="2.44444" height="2.44444" fill="#011D2B"/>
<rect width="2.44444" height="2.44444" transform="matrix(-1 0 0 1 173 4)" fill="#011D2B"/>
<rect x="7.99999" y="0.333336" width="162.556" height="3.66667" fill="#011D2B"/>
<rect x="3.1111" y="18.6667" width="2.44444" height="2.44444" fill="#011D2B"/>
<rect width="2.44444" height="2.44444" transform="matrix(-1 0 0 1 175.444 18.6667)" fill="#011D2B"/>
<rect x="5.55554" y="21.1111" width="2.44444" height="2.44444" fill="#011D2B"/>
<rect width="2.44444" height="2.44444" transform="matrix(-1 0 0 1 173 21.1111)" fill="#011D2B"/>
<rect x="7.99999" y="21.1111" width="2.44444" height="2.44444" fill="#011D2B"/>
<rect x="7.99999" y="4" width="2.44444" height="2.44444" fill="#011D2B"/>
<rect x="5.55554" y="1.55556" width="2.44444" height="2.44444" fill="#011D2B"/>
<rect x="5.55554" y="23.5556" width="2.44444" height="2.44444" fill="#011D2B"/>
<rect x="168.111" y="4" width="2.44444" height="2.44444" fill="#011D2B"/>
<rect x="170.556" y="1.55556" width="2.44444" height="2.44444" fill="#011D2B"/>
<rect x="168.111" y="21.1111" width="2.44444" height="2.44444" fill="#011D2B"/>
<rect x="170.556" y="23.5556" width="2.44444" height="2.44444" fill="#011D2B"/>
<rect x="7.99999" y="23.5556" width="162.556" height="3.66667" fill="#011D2B"/>
<rect x="176.667" y="6.44445" width="14.6667" height="1.22222" transform="rotate(90 176.667 6.44445)" fill="#011D2B"/>
<rect x="3.1111" y="6.44445" width="14.6667" height="1.22222" transform="rotate(90 3.1111 6.44445)" fill="#011D2B"/>
<rect x="1.88888" y="8.88889" width="9.77778" height="1.22222" transform="rotate(90 1.88888 8.88889)" fill="#011D2B"/>
</g>
<defs>
<filter id="filter0_d_4_1505" x="0.666656" y="0.333336" width="176" height="27.8889" filterUnits="userSpaceOnUse" color-interpolation-filters="sRGB">
<feFlood flood-opacity="0" result="BackgroundImageFix"/>
<feColorMatrix in="SourceAlpha" type="matrix" values="0 0 0 0 0 0 0 0 0 0 0 0 0 0 0 0 0 0 127 0" result="hardAlpha"/>
<feOffset dy="1"/>
<feComposite in2="hardAlpha" operator="out"/>
<feColorMatrix type="matrix" values="0 0 0 0 0 0 0 0 0 0 0 0 0 0 0 0 0 0 0.25 0"/>
<feBlend mode="normal" in2="BackgroundImageFix" result="effect1_dropShadow_4_1505"/>
<feBlend mode="normal" in="SourceGraphic" in2="effect1_dropShadow_4_1505" result="shape"/>
</filter>
</defs>
</svg>
